# xmcd
#
# Track frame offsets: 
#        150
#        12267
#        24112
#        36117
#        52457
#        63097
#        74752
#        87547
#        99485
#        111932
#
# Disc length: 1655 seconds
#
# Revision: 0
# Processed by: cddbd v1.5.2PL0 Copyright (c) Steve Scherf et al.
# Submitted via: ExactAudioCopy v0.99pb5
#
DISCID=8706750a
DTITLE=Tommy Overstreet - Country's Best Tommy Overstreet, Vol 1
DYEAR=2006
DGENRE=Country
TTITLE0=If You're Looking For A Fool
TTITLE1=Gwen (Congratulations)
TTITLE2=I Don't Know You (Anymore)
TTITLE3=A Seed Before The Rose
TTITLE4=Ann (Don't Go Runnin')
TTITLE5=Heaven Is My Woman's Love
TTITLE6=Send Me No Roses
TTITLE7=I'll Never Break These Chains
TTITLE8=I'm A Believer
TTITLE9=(Jeannie Marie) You Were A Lady
EXTD=
EXTT0=
EXTT1=
EXTT2=
EXTT3=
EXTT4=
EXTT5=
EXTT6=
EXTT7=
EXTT8=
EXTT9=
PLAYORDER=
